#!OML:ASF F:\VICON\USERDATA\INSTALL\rory3\rory3.ASF
:FULLY-SPECIFIED
:DEGREES
141
root 0.584568424860314 17.826706798254488 40.95035002237759 2.201478374964018 1.317023349440893 -0.3285444405010094
lfemur -22.786337173555125 0.5656972854202772 -20.61824355374721
ltibia 50.05372124391258
lfoot 2.0551180913075697 -7.992067599548985
ltoes -8.98010728282123
rfemur -12.653636464252042 3.979263765216146 29.673990523835734
rtibia 57.30456870382635
rfoot -3.4880919489372957 -6.590814244977899
rtoes -3.8499183993183896
lowerback 13.176355070781783 0.9531881829378384 2.919969578313661
upperback -0.6243456452263013 2.4814579200572187 1.5852970350143916
thorax -8.223095923594798 1.3993470086911435 0.2525688322835225
lowerneck -18.453420098239835 -4.392429978321079 -2.343420348649848
upperneck 13.668282453694214 -5.779660564658478 3.1508433220338885
head 7.408719748351146 -2.5289195117883674 0.6718443337082868
lclavicle 3.0724827264545893e-16 -4.3067221206564905e-16
lhumerus -49.44310531210882 -13.67373438892032 98.06979932269788
lradius 109.79063135496402
lwrist 32.449670000931725
lhand -25.769613673489804 3.4664544082364483
lfingers 7.125020000000001
lthumb 0.6699264313371596 33.038931841049504
rclavicle 3.0728743657241976e-16 -4.3064985682852227e-16
rhumerus -40.863906997107925 8.466517914073515 -95.22234626469647
rradius 103.53914721964635
rwrist -19.376159666454427
rhand -18.430767877268185 37.539263807532855
rfingers 7.125020000000001
rthumb 7.949523113131255 7.6295169799640385
142
root 0.5648200733202351 17.770190858165382 39.084034505736824 1.9964714223895779 1.0395775177954314 -0.4845512710115649
lfemur -19.67272606199186 0.7897241298700878 -20.247940797351582
ltibia 48.67264960421218
lfoot 2.6243381099101017 -8.87033875400066
ltoes -8.947608538150472
rfemur -15.266198707350053 3.563833182715379 28.690713078972728
rtibia 58.72527566927115
rfoot -3.6518109232099936 -6.633003746163935
rtoes -4.417449671991308
lowerback 13.029499308693408 0.9001502822906056 2.7214452173875783
upperback -0.6703371970522524 2.4340565525282094 1.4768175778470243
thorax -8.272025192606128 1.3178828499610495 0.11281397676484736
lowerneck -18.45129835663945 -4.353766144174531 -2.3302986569043824
upperneck 13.664060591404018 -5.746658111887004 3.165122017587344
head 7.415030962095861 -2.5244380686890846 0.6813948985850526
lclavicle 3.0724827264545893e-16 -4.3067221206564905e-16
lhumerus -49.0073398226119 -13.755096849446165 98.13346667106258
lradius 109.72023732894918
lwrist 32.30800383807315
lhand -25.78884353386478 3.4015885639857046
lfingers 7.125020000000001
lthumb 0.6879322077236263 32.93298110638392
rclavicle 3.0728743657241976e-16 -4.3064985682852227e-16
rhumerus -40.607883481756346 8.671659437895691 -95.29356585093406
rradius 103.7266014202919
rwrist -19.312197281986837
rhand -18.4618466354209 37.52517025226017
rfingers 7.125020000000001
rthumb 7.87712771639707 7.553540226835448
143
root 0.5743483957125939 17.788054103496027 40.56446726973232 2.0509643540268083 1.2881428128649346 -0.3370600763912148
lfemur -21.025887817664547 0.5681084917053466 -20.716410060284257
ltibia 47.39332035561459
lfoot 1.918619253873148 -10.093282420737419
ltoes -9.153123143246516
rfemur -11.935682948519503 3.848341476766857 29.530921337981127
rtibia 59.701855218653286
rfoot -4.008970284801719 -6.753613972004714
rtoes -4.661892208602797
lowerback 13.03098204864942 0.9449018068554095 2.6856216471338166
upperback -0.6840279666384526 2.4906930062576067 1.4122634023875307
thorax -8.226366380267203 1.3605174240862656 0.29511805734087726
lowerneck -18.582515629798504 -4.398360292802333 -2.3513326154394387
upperneck 13.669954110411929 -5.679540659030021 3.166313893423056
head 7.4336288887166235 -2.51194550920934 0.6956689134128383
lclavicle 3.0724827264545893e-16 -4.3067221206564905e-16
lhumerus -49.21082384217758 -14.053886744037577 98.07144238612877
lradius 109.83552239088704
lwrist 32.3823895848571
lhand -25.774067537049365 3.413081478559343
lfingers 7.125020000000001
lthumb 0.6383191098619786 32.84390080226168
rclavicle 3.0728743657241976e-16 -4.3064985682852227e-16
rhumerus -40.621086846150924 8.827528547107097 -95.40635169829422
rradius 103.95984564295316
rwrist -19.257864703298374
rhand -18.46602872011789 37.547187478045736
rfingers 7.125020000000001
rthumb 7.933302944145969 7.5966516130061965
144
root 0.5503799755106881 17.714259112467225 38.095934223521105 1.7861414222512992 0.9042839236031468 -0.4935414046747493
lfemur -20.310350563782894 0.42268766448751294 -20.8302254822606
ltibia 46.26235507027815
lfoot 1.14074745621715 -10.712832654093912
ltoes -9.21106885219233
rfemur -11.73468256418466 3.915201979750959 29.461931879837838
rtibia 60.83331695086076
rfoot -4.111561483177833 -7.049011874530569
rtoes -4.632583260900881
lowerback 13.02325405410911 0.9356775731952909 2.5016741979490735
upperback -0.6960642910687643 2.44518960671667 1.3583929544566362
thorax -8.324248263470963 1.1580729295225263 -0.005165591687105259
lowerneck -18.65185675905504 -4.366934430014023 -2.3327885010256564
upperneck 13.705608913603772 -5.604039827975881 3.1749248135167303
head 7.446211666159122 -2.510349905876182 0.7022495458670743
lclavicle 3.0724827264545893e-16 -4.3067221206564905e-16
lhumerus -48.66149953272559 -14.087409146832503 98.12422541351549
lradius 109.60007280237507
lwrist 32.37215564444041
lhand -25.77111609284797 3.352986511790391
lfingers 7.125020000000001
lthumb 0.695448570157553 32.87911389580362
rclavicle 3.0728743657241976e-16 -4.3064985682852227e-16
rhumerus -40.72237991237289 8.960111537546947 -95.53573642376385
rradius 103.95375176367122
rwrist -19.306494352431184
rhand -18.48439995287067 37.49264701682847
rfingers 7.125020000000001
rthumb 7.886204741470501 7.5237830178244485
145
root 0.5816831626223505 17.796478431894254 42.188689075754105 2.032258831239395 1.5502365929105038 0.0021171285747692004
lfemur -19.807731117468528 0.27048225530737013 -21.1532446832595
ltibia 45.30391638420701
lfoot 1.4179939120160037 -10.278871644216633
ltoes -9.329190046767211
rfemur -16.530211916960987 3.1749474166338123 27.978700522895142
rtibia 62.19110949363042
rfoot -3.0625739589219414 -7.23251165803249
rtoes -4.58825301739704
lowerback 13.081162627145018 0.9461944197420236 2.3672473687651387
upperback -0.6861095950248122 2.3672619931990453 1.3412063782177468
thorax -8.167412029343042 1.2810389410653413 0.3872134172174324
lowerneck -18.626564662048683 -4.259601610559725 -2.30896884594154
upperneck 13.749430049199859 -5.562071131470851 3.163464450071496
head 7.444796351755371 -2.526875984473966 0.7015622676538736
lclavicle 3.0724827264545893e-16 -4.3067221206564905e-16
lhumerus -48.33378789766408 -14.104637986266857 98.06730214769854
lradius 109.42393415468713
lwrist 32.386254772270576
lhand -25.764436492638342 3.318136802698864
lfingers 7.125020000000001
lthumb 0.7073322332893576 32.90295075644182
rclavicle 3.0728743657241976e-16 -4.3064985682852227e-16
rhumerus -40.86228921271894 9.0690710461849 -95.67363386472357
rradius 103.8602270830362
rwrist -19.393374005565224
rhand -18.487258687715023 37.506603017903984
rfingers 7.125020000000001
rthumb 7.9646188187098055 7.595049272645696
146
root 0.5469236109136761 17.702714478871446 38.36182303531258 1.7421220590118793 1.0571773776240112 -0.33681533535591734
lfemur -17.320210639782243 0.6567400164526894 -20.530693681752528
ltibia 44.505948539050536
lfoot 2.5375235845834245 -10.028033161822261
ltoes -9.11026069946554
rfemur -17.1202869465179 2.8923643940547357 27.681951380959124
rtibia 62.95007580042235
rfoot -2.350722234201851 -7.463218877214979
rtoes -4.602281382544001
lowerback 13.123452035927762 0.9269648105023587 2.1201454847826153
upperback -0.72714959584072 2.1326054200141544 1.2374147426140962
thorax -8.295637572677506 1.1159933211251054 0.19833817113391025
lowerneck -18.719948558950033 -4.204810607525372 -2.3041121719535163
upperneck 13.798752250625736 -5.490844765017631 3.1686196984718795
head 7.439038944937477 -2.5382079730589027 0.7064410339131998
lclavicle 3.0724827264545893e-16 -4.3067221206564905e-16
lhumerus -48.42139270548644 -14.26419010538493 97.90060883684646
lradius 109.33602665055699
lwrist 32.18553228270393
lhand -25.802529449422618 3.151473045035542
lfingers 7.125020000000001
lthumb 0.7724682596173197 32.98988412608902
rclavicle 3.0728743657241976e-16 -4.3064985682852227e-16
rhumerus -40.85334191174648 9.20359794637369 -95.77015719034107
rradius 103.57752486375367
rwrist -19.360736549851875
rhand -18.477391488931783 37.50581639039655
rfingers 7.125020000000001
rthumb 7.96650607480222 7.619836517895428
147
root 0.5516183654278421 17.707629902742344 39.79520604957114 1.7859408916160284 1.3013872928455155 -0.18036532967609054
lfemur -17.201782058348055 0.5309609022340284 -21.19353797972497
ltibia 44.15519510064483
lfoot 3.4182540674439044 -9.783153667654185
ltoes -8.889491965361383
rfemur -15.538781875516017 2.9907607579219846 28.004336863579265
rtibia 62.94969810179191
rfoot -1.8845705159742874 -7.318666447800239
rtoes -4.374160299140719
lowerback 13.208065169396887 0.9393037026029196 1.9253681124191402
upperback -0.7535262503463946 1.8969206527325508 1.1251918761921387
thorax -8.22632640255854 1.1591935935112947 0.428163936354125
lowerneck -18.876084310736 -4.2020885621138495 -2.3168757817017798
upperneck 13.80900428868881 -5.457479770891142 3.1372371290590695
head 7.428077132027173 -2.553013577325278 0.7087323919415748
lclavicle 3.0724827264545893e-16 -4.3067221206564905e-16
lhumerus -48.88651440583146 -14.303828767187987 97.74558935384263
lradius 109.38441790214412
lwrist 32.37060837663085
lhand -25.79088820668956 3.134382152197655
lfingers 7.125020000000001
lthumb 0.7583526470034068 32.925838724733104
rclavicle 3.0728743657241976e-16 -4.3064985682852227e-16
rhumerus -40.93186641471161 9.296839755743196 -95.85270257602699
rradius 103.2976116877708
rwrist -19.319531042436136
rhand -18.501477404422218 37.48855826348786
rfingers 7.125020000000001
rthumb 7.9688443634002475 7.592237420981753
